<svg width="378" height="379" viewBox="0 0 378 379" fill="none" xmlns="http://www.w3.org/2000/svg">
<path d="M197.5 338.5L195 331.014C286 320.014 301.5 260 315 228.014C324.453 205.616 301 270.667 309 271.001C245 329.001 196 357.986 197.5 338.5Z" stroke="white" stroke-opacity="0.7" stroke-width="1.5"/>
<g filter="url(#filter0_d_3_60)">
<path d="M194 363.013V331.013C285 320.013 302 261.013 314 228.013C323.6 201.613 342 195.68 350 196.013C343.6 317.613 243.333 358.013 194 363.013Z" fill="url(#paint0_linear_3_60)"/>
</g>
<g filter="url(#filter1_di_3_60)">
<path d="M177 185C196.2 176.2 276.333 178 314 180C305.857 194.161 294.117 203.492 281.97 209.465C256.338 222.069 225.728 212.011 197.858 218.266C179.116 222.472 170.85 232.985 170 240V364C168.145 363.404 166.377 362.689 164.695 361.873C133.765 346.874 136 303.709 136 269.335V240C136 219 153 196 177 185Z" fill="url(#paint1_radial_3_60)"/>
</g>
<g filter="url(#filter2_d_3_60)">
<path d="M54.9848 66.5C174.185 -27.9 278.151 44 314.485 90H268.985C237.985 58 120.985 19.5 60.9848 116.5C12.9848 194.1 52.6515 266.667 81.9848 293V336.5C55.5848 330.1 30.8182 282.667 20.4848 261C-21.1152 166.6 25.6515 91.8333 54.9848 66.5Z" fill="url(#paint2_radial_3_60)"/>
</g>
<g style="mix-blend-mode:plus-lighter" filter="url(#filter3_f_3_60)">
<path fill-rule="evenodd" clip-rule="evenodd" d="M69.9066 65.6411C107.141 36.1537 142.888 22.8926 175.553 20C160.404 27.8014 149.193 37.3082 143.389 47.8325C122.558 46.8384 100.599 54.8055 83.7136 71.4783C74.4369 80.6379 67.7681 91.3616 63.7625 102.622C61.8306 102.46 59.8831 102.378 57.9218 102.378C51.6136 102.378 45.4491 103.229 39.4848 104.853C49.0543 87.2632 60.3966 73.8542 69.9066 65.6411Z" fill="url(#paint3_radial_3_60)" fill-opacity="0.25"/>
</g>
<g filter="url(#filter4_d_3_60)">
<path d="M101 137C81.9212 164.028 86.277 284.136 90.9116 341.906C90.9676 342.603 91.3821 343.191 92.0076 343.504L122.028 358.514C123.376 359.188 124.958 358.208 124.924 356.701C123.932 312.668 122.66 222.539 125 189C126.125 172.875 130.48 163.847 135.768 158.394C145.409 148.452 161.094 148.251 174.935 147.765L239.5 145.5L319.996 142.861C327.31 142.621 334.803 141.96 341.164 138.341C366.828 123.738 377.342 84.8767 372 92C369.032 95.9573 351.574 104.005 340.807 108.745C338.782 109.637 325.052 112 322.839 112H179C159 112 120.2 109.8 101 137Z" fill="url(#paint4_radial_3_60)"/>
</g>
<g style="mix-blend-mode:plus-lighter" filter="url(#filter5_f_3_60)">
<path fill-rule="evenodd" clip-rule="evenodd" d="M112.359 164.959C107.618 158.856 102.465 153.885 97 150.24C98.4972 145.627 100.219 141.837 102.192 139.043C120.123 113.641 155.149 113.88 175.991 114.023C177.466 114.033 178.87 114.043 180.192 114.043H235.718C234.473 116.485 233.261 118.966 232.084 121.484C231.239 123.294 230.419 125.105 229.626 126.917C199.744 126.036 164.069 135.082 129.764 154.244C123.71 157.626 117.902 161.209 112.359 164.959Z" fill="url(#paint5_radial_3_60)" fill-opacity="0.25"/>
</g>
<g style="mix-blend-mode:plus-lighter" filter="url(#filter6_f_3_60)">
<path fill-rule="evenodd" clip-rule="evenodd" d="M176.402 188.043C183.79 184.656 200.2 182.84 219.742 182C216.014 189.645 213.441 197.837 212.217 206.402C211.946 206.4 211.674 206.399 211.402 206.399C191.908 206.399 173.691 211.251 158.202 219.668C153.261 218.668 148.185 217.985 143 217.646C150.208 205.484 162.054 194.619 176.402 188.043Z" fill="url(#paint6_radial_3_60)" fill-opacity="0.25"/>
</g>
<g style="mix-blend-mode:plus-lighter" filter="url(#filter7_f_3_60)">
<path fill-rule="evenodd" clip-rule="evenodd" d="M244.231 346.866C237.37 351.223 221.358 355.25 202.112 358.734C204.767 350.654 206.205 342.189 206.255 333.537C206.524 333.502 206.794 333.466 207.063 333.429C226.377 330.784 243.767 323.504 257.971 313.063C263.001 313.384 268.124 313.371 273.306 313.003C267.816 326.032 257.553 338.404 244.231 346.866Z" fill="url(#paint7_radial_3_60)" fill-opacity="0.25"/>
</g>
<defs>
<filter id="filter0_d_3_60" x="190" y="196" width="164" height="175.013" filterUnits="userSpaceOnUse" color-interpolation-filters="sRGB">
<feFlood flood-opacity="0" result="BackgroundImageFix"/>
<feColorMatrix in="SourceAlpha" type="matrix" values="0 0 0 0 0 0 0 0 0 0 0 0 0 0 0 0 0 0 127 0" result="hardAlpha"/>
<feOffset dy="4"/>
<feGaussianBlur stdDeviation="2"/>
<feComposite in2="hardAlpha" operator="out"/>
<feColorMatrix type="matrix" values="0 0 0 0 0 0 0 0 0 0 0 0 0 0 0 0 0 0 0.25 0"/>
<feBlend mode="normal" in2="BackgroundImageFix" result="effect1_dropShadow_3_60"/>
<feBlend mode="normal" in="SourceGraphic" in2="effect1_dropShadow_3_60" result="shape"/>
</filter>
<filter id="filter1_di_3_60" x="131.964" y="178.356" width="186.036" height="193.644" filterUnits="userSpaceOnUse" color-interpolation-filters="sRGB">
<feFlood flood-opacity="0" result="BackgroundImageFix"/>
<feColorMatrix in="SourceAlpha" type="matrix" values="0 0 0 0 0 0 0 0 0 0 0 0 0 0 0 0 0 0 127 0" result="hardAlpha"/>
<feOffset dy="4"/>
<feGaussianBlur stdDeviation="2"/>
<feComposite in2="hardAlpha" operator="out"/>
<feColorMatrix type="matrix" values="0 0 0 0 0 0 0 0 0 0 0 0 0 0 0 0 0 0 0.25 0"/>
<feBlend mode="normal" in2="BackgroundImageFix" result="effect1_dropShadow_3_60"/>
<feBlend mode="normal" in="SourceGraphic" in2="effect1_dropShadow_3_60" result="shape"/>
<feColorMatrix in="SourceAlpha" type="matrix" values="0 0 0 0 0 0 0 0 0 0 0 0 0 0 0 0 0 0 127 0" result="hardAlpha"/>
<feOffset dy="2"/>
<feGaussianBlur stdDeviation="0.95"/>
<feComposite in2="hardAlpha" operator="arithmetic" k2="-1" k3="1"/>
<feColorMatrix type="matrix" values="0 0 0 0 1 0 0 0 0 1 0 0 0 0 1 0 0 0 0.25 0"/>
<feBlend mode="normal" in2="shape" result="effect2_innerShadow_3_60"/>
</filter>
<filter id="filter2_d_3_60" x="0" y="20.2368" width="318.485" height="324.263" filterUnits="userSpaceOnUse" color-interpolation-filters="sRGB">
<feFlood flood-opacity="0" result="BackgroundImageFix"/>
<feColorMatrix in="SourceAlpha" type="matrix" values="0 0 0 0 0 0 0 0 0 0 0 0 0 0 0 0 0 0 127 0" result="hardAlpha"/>
<feOffset dy="4"/>
<feGaussianBlur stdDeviation="2"/>
<feComposite in2="hardAlpha" operator="out"/>
<feColorMatrix type="matrix" values="0 0 0 0 0 0 0 0 0 0 0 0 0 0 0 0 0 0 0.25 0"/>
<feBlend mode="normal" in2="BackgroundImageFix" result="effect1_dropShadow_3_60"/>
<feBlend mode="normal" in="SourceGraphic" in2="effect1_dropShadow_3_60" result="shape"/>
</filter>
<filter id="filter3_f_3_60" x="20.0848" y="0.6" width="174.868" height="123.653" filterUnits="userSpaceOnUse" color-interpolation-filters="sRGB">
<feFlood flood-opacity="0" result="BackgroundImageFix"/>
<feBlend mode="normal" in="SourceGraphic" in2="BackgroundImageFix" result="shape"/>
<feGaussianBlur stdDeviation="9.7" result="effect1_foregroundBlur_3_60"/>
</filter>
<filter id="filter4_d_3_60" x="82.9278" y="91.1365" width="294.426" height="275.594" filterUnits="userSpaceOnUse" color-interpolation-filters="sRGB">
<feFlood flood-opacity="0" result="BackgroundImageFix"/>
<feColorMatrix in="SourceAlpha" type="matrix" values="0 0 0 0 0 0 0 0 0 0 0 0 0 0 0 0 0 0 127 0" result="hardAlpha"/>
<feOffset dy="4"/>
<feGaussianBlur stdDeviation="2"/>
<feComposite in2="hardAlpha" operator="out"/>
<feColorMatrix type="matrix" values="0 0 0 0 0 0 0 0 0 0 0 0 0 0 0 0 0 0 0.25 0"/>
<feBlend mode="normal" in2="BackgroundImageFix" result="effect1_dropShadow_3_60"/>
<feBlend mode="normal" in="SourceGraphic" in2="effect1_dropShadow_3_60" result="shape"/>
</filter>
<filter id="filter5_f_3_60" x="77.6" y="94.6" width="177.518" height="89.7595" filterUnits="userSpaceOnUse" color-interpolation-filters="sRGB">
<feFlood flood-opacity="0" result="BackgroundImageFix"/>
<feBlend mode="normal" in="SourceGraphic" in2="BackgroundImageFix" result="shape"/>
<feGaussianBlur stdDeviation="9.7" result="effect1_foregroundBlur_3_60"/>
</filter>
<filter id="filter6_f_3_60" x="123.6" y="162.6" width="115.542" height="76.4684" filterUnits="userSpaceOnUse" color-interpolation-filters="sRGB">
<feFlood flood-opacity="0" result="BackgroundImageFix"/>
<feBlend mode="normal" in="SourceGraphic" in2="BackgroundImageFix" result="shape"/>
<feGaussianBlur stdDeviation="9.7" result="effect1_foregroundBlur_3_60"/>
</filter>
<filter id="filter7_f_3_60" x="182.712" y="293.603" width="109.994" height="84.5305" filterUnits="userSpaceOnUse" color-interpolation-filters="sRGB">
<feFlood flood-opacity="0" result="BackgroundImageFix"/>
<feBlend mode="normal" in="SourceGraphic" in2="BackgroundImageFix" result="shape"/>
<feGaussianBlur stdDeviation="9.7" result="effect1_foregroundBlur_3_60"/>
</filter>
<linearGradient id="paint0_linear_3_60" x1="194" y1="349" x2="388" y2="196" gradientUnits="userSpaceOnUse">
<stop stop-color="#A24D33"/>
<stop offset="1" stop-color="#C97A59"/>
</linearGradient>
<radialGradient id="paint1_radial_3_60" cx="0" cy="0" r="1" gradientUnits="userSpaceOnUse" gradientTransform="translate(282 190) rotate(128.108) scale(259.26 248.586)">
<stop stop-color="#BD694D"/>
<stop offset="0.434956" stop-color="#C87452"/>
<stop offset="1" stop-color="#913420"/>
</radialGradient>
<radialGradient id="paint2_radial_3_60" cx="0" cy="0" r="1" gradientUnits="userSpaceOnUse" gradientTransform="translate(294.485 83) rotate(137.406) scale(336.88 330.404)">
<stop stop-color="#DA9B72"/>
<stop offset="0.506979" stop-color="#F2C5A3"/>
<stop offset="1" stop-color="#9F3C27"/>
</radialGradient>
<radialGradient id="paint3_radial_3_60" cx="0" cy="0" r="1" gradientUnits="userSpaceOnUse" gradientTransform="translate(309.407 82.1411) rotate(137.406) scale(336.88 330.404)">
<stop stop-color="white"/>
<stop offset="0.506979" stop-color="#F2C5A3"/>
<stop offset="1" stop-color="#EEE5E3"/>
</radialGradient>
<radialGradient id="paint4_radial_3_60" cx="0" cy="0" r="1" gradientUnits="userSpaceOnUse" gradientTransform="translate(336 109) rotate(132.993) scale(343.157 365.572)">
<stop stop-color="#C97A59"/>
<stop offset="0.511" stop-color="#E1A07E"/>
<stop offset="1" stop-color="#913521"/>
</radialGradient>
<radialGradient id="paint5_radial_3_60" cx="0" cy="0" r="1" gradientUnits="userSpaceOnUse" gradientTransform="translate(337.192 111.043) rotate(132.993) scale(343.157 365.572)">
<stop stop-color="#C97A59"/>
<stop offset="0.511" stop-color="#E1A07E"/>
<stop offset="1" stop-color="#913521"/>
</radialGradient>
<radialGradient id="paint6_radial_3_60" cx="0" cy="0" r="1" gradientUnits="userSpaceOnUse" gradientTransform="translate(281.402 193.043) rotate(128.108) scale(259.26 248.586)">
<stop stop-color="#BD694D"/>
<stop offset="0.434956" stop-color="#C87452"/>
<stop offset="1" stop-color="#913420"/>
</radialGradient>
<radialGradient id="paint7_radial_3_60" cx="0" cy="0" r="1" gradientUnits="userSpaceOnUse" gradientTransform="translate(139.523 356.161) rotate(-59.6916) scale(259.26 248.586)">
<stop stop-color="#BD694D"/>
<stop offset="0.434956" stop-color="#C87452"/>
<stop offset="1" stop-color="#913420"/>
</radialGradient>
</defs>
</svg>
